# xmcd
#
# Track frame offsets: 
#        150
#        15270
#        37177
#        51048
#        67003
#        84966
#        115486
#        133369
#        153427
#        167433
#        193413
#        213198
#        229639
#        249561
#
# Disc length: 3619 seconds
#
# Revision: 0
# Processed by: cddbd v1.5.2PL0 Copyright (c) Steve Scherf et al.
# Submitted via: ExactAudioCopyFreeDBPlugin 1.0
#
DISCID=be0e210e
DTITLE=John Mayall and The Bluesbreakers - In The Palace Of The King
DYEAR=2007
DGENRE=Blues
TTITLE0=You Know That You Love Me
TTITLE1=Goin' Down
TTITLE2=Some Other Day, Some Other Time
TTITLE3=Palace Of The King
TTITLE4=I'd Rather Be Blind
TTITLE5=Time To Go
TTITLE6=Big Legged Women
TTITLE7=Now I've Got A Woman
TTITLE8=I Love You More Every Day
TTITLE9=Help Me Through The Day 
TTITLE10=Cannonball Shuffle
TTITLE11=You've Got Me Licked
TTITLE12=King Of The Kings
TTITLE13=Living On The Highway
EXTD=
EXTT0=
EXTT1=
EXTT2=
EXTT3=
EXTT4=
EXTT5=
EXTT6=
EXTT7=
EXTT8=
EXTT9=
EXTT10=
EXTT11=
EXTT12=
EXTT13=
PLAYORDER=
